<svg width="190" height="30" viewBox="0 0 190 30" fill="none" xmlns="http://www.w3.org/2000/svg">
<path d="M23.92 29L23.884 13.88L16.468 26.336H13.84L6.46 14.204V29H0.988V3.8H5.812L15.244 19.46L24.532 3.8H29.32L29.392 29H23.92ZM53.9468 19.388C53.9468 19.46 53.9108 19.964 53.8388 20.9H39.1868C39.4508 22.1 40.0748 23.048 41.0588 23.744C42.0428 24.44 43.2668 24.788 44.7308 24.788C45.7388 24.788 46.6268 24.644 47.3948 24.356C48.1868 24.044 48.9188 23.564 49.5908 22.916L52.5788 26.156C50.7548 28.244 48.0908 29.288 44.5868 29.288C42.4028 29.288 40.4708 28.868 38.7908 28.028C37.1108 27.164 35.8148 25.976 34.9028 24.464C33.9908 22.952 33.5348 21.236 33.5348 19.316C33.5348 17.42 33.9788 15.716 34.8668 14.204C35.7788 12.668 37.0148 11.48 38.5748 10.64C40.1588 9.776 41.9228 9.344 43.8668 9.344C45.7628 9.344 47.4788 9.752 49.0148 10.568C50.5508 11.384 51.7508 12.56 52.6148 14.096C53.5028 15.608 53.9468 17.372 53.9468 19.388ZM43.9028 13.592C42.6308 13.592 41.5628 13.952 40.6988 14.672C39.8348 15.392 39.3068 16.376 39.1148 17.624H48.6548C48.4628 16.4 47.9348 15.428 47.0708 14.708C46.2068 13.964 45.1508 13.592 43.9028 13.592ZM77.4138 2.288V29H72.0498V26.768C70.6578 28.448 68.6418 29.288 66.0018 29.288C64.1778 29.288 62.5218 28.88 61.0338 28.064C59.5698 27.248 58.4178 26.084 57.5778 24.572C56.7378 23.06 56.3178 21.308 56.3178 19.316C56.3178 17.324 56.7378 15.572 57.5778 14.06C58.4178 12.548 59.5698 11.384 61.0338 10.568C62.5218 9.752 64.1778 9.344 66.0018 9.344C68.4738 9.344 70.4058 10.124 71.7978 11.684V2.288H77.4138ZM66.9738 24.68C68.3898 24.68 69.5658 24.2 70.5018 23.24C71.4378 22.256 71.9058 20.948 71.9058 19.316C71.9058 17.684 71.4378 16.388 70.5018 15.428C69.5658 14.444 68.3898 13.952 66.9738 13.952C65.5338 13.952 64.3458 14.444 63.4098 15.428C62.4738 16.388 62.0058 17.684 62.0058 19.316C62.0058 20.948 62.4738 22.256 63.4098 23.24C64.3458 24.2 65.5338 24.68 66.9738 24.68ZM82.6115 9.632H88.2275V29H82.6115V9.632ZM85.4195 6.932C84.3875 6.932 83.5475 6.632 82.8995 6.032C82.2515 5.432 81.9275 4.688 81.9275 3.8C81.9275 2.912 82.2515 2.168 82.8995 1.568C83.5475 0.967998 84.3875 0.667998 85.4195 0.667998C86.4515 0.667998 87.2915 0.955998 87.9395 1.532C88.5875 2.108 88.9115 2.828 88.9115 3.692C88.9115 4.628 88.5875 5.408 87.9395 6.032C87.2915 6.632 86.4515 6.932 85.4195 6.932ZM102.8 29.288C100.736 29.288 98.8757 28.868 97.2197 28.028C95.5877 27.164 94.3037 25.976 93.3677 24.464C92.4557 22.952 91.9997 21.236 91.9997 19.316C91.9997 17.396 92.4557 15.68 93.3677 14.168C94.3037 12.656 95.5877 11.48 97.2197 10.64C98.8757 9.776 100.736 9.344 102.8 9.344C104.84 9.344 106.616 9.776 108.128 10.64C109.664 11.48 110.78 12.692 111.476 14.276L107.12 16.616C106.112 14.84 104.66 13.952 102.764 13.952C101.3 13.952 100.088 14.432 99.1277 15.392C98.1677 16.352 97.6877 17.66 97.6877 19.316C97.6877 20.972 98.1677 22.28 99.1277 23.24C100.088 24.2 101.3 24.68 102.764 24.68C104.684 24.68 106.136 23.792 107.12 22.016L111.476 24.392C110.78 25.928 109.664 27.128 108.128 27.992C106.616 28.856 104.84 29.288 102.8 29.288Z" fill="#FCECEF"/>
<path d="M125.725 3.8C128.989 3.8 131.557 4.58 133.429 6.14C135.301 7.7 136.237 9.848 136.237 12.584C136.237 15.32 135.301 17.468 133.429 19.028C131.557 20.588 128.989 21.368 125.725 21.368H119.497V29H115.897V3.8H125.725ZM125.617 18.236C127.897 18.236 129.637 17.756 130.837 16.796C132.037 15.812 132.637 14.408 132.637 12.584C132.637 10.76 132.037 9.368 130.837 8.408C129.637 7.424 127.897 6.932 125.617 6.932H119.497V18.236H125.617ZM141.374 2.288H144.83V29H141.374V2.288ZM169.212 9.92V29H165.936V26.12C165.24 27.104 164.316 27.872 163.164 28.424C162.036 28.952 160.8 29.216 159.456 29.216C156.912 29.216 154.908 28.52 153.444 27.128C151.98 25.712 151.248 23.636 151.248 20.9V9.92H154.704V20.504C154.704 22.352 155.148 23.756 156.036 24.716C156.924 25.652 158.196 26.12 159.852 26.12C161.676 26.12 163.116 25.568 164.172 24.464C165.228 23.36 165.756 21.8 165.756 19.784V9.92H169.212ZM181.264 29.216C179.704 29.216 178.204 29.012 176.764 28.604C175.324 28.172 174.196 27.632 173.38 26.984L174.82 24.248C175.66 24.848 176.68 25.328 177.88 25.688C179.08 26.048 180.292 26.228 181.516 26.228C184.54 26.228 186.052 25.364 186.052 23.636C186.052 23.06 185.848 22.604 185.44 22.268C185.032 21.932 184.516 21.692 183.892 21.548C183.292 21.38 182.428 21.2 181.3 21.008C179.764 20.768 178.504 20.492 177.52 20.18C176.56 19.868 175.732 19.34 175.036 18.596C174.34 17.852 173.992 16.808 173.992 15.464C173.992 13.736 174.712 12.356 176.152 11.324C177.592 10.268 179.524 9.74 181.948 9.74C183.22 9.74 184.492 9.896 185.764 10.208C187.036 10.52 188.08 10.94 188.896 11.468L187.42 14.204C185.86 13.196 184.024 12.692 181.912 12.692C180.448 12.692 179.332 12.932 178.564 13.412C177.796 13.892 177.412 14.528 177.412 15.32C177.412 15.944 177.628 16.436 178.06 16.796C178.492 17.156 179.02 17.42 179.644 17.588C180.292 17.756 181.192 17.948 182.344 18.164C183.88 18.428 185.116 18.716 186.052 19.028C187.012 19.316 187.828 19.82 188.5 20.54C189.172 21.26 189.508 22.268 189.508 23.564C189.508 25.292 188.764 26.672 187.276 27.704C185.812 28.712 183.808 29.216 181.264 29.216Z" fill="white"/>
</svg>
