<svg width="60" height="60" viewBox="0 0 60 60" fill="none" xmlns="http://www.w3.org/2000/svg">
<path d="M28.6755 29.3568C29.4046 30.2239 30.5921 30.2239 31.3316 29.3568L42.6747 15.9745C45.9662 12.084 45.7787 5.63901 42.0914 2.05322C38.8833 -1.07555 34.1023 -0.513078 31.1649 2.95553L29.9983 4.32656L28.8422 2.96724C25.9048 -0.513078 21.1238 -1.07555 17.9157 2.05322C14.2388 5.63901 14.0409 12.084 17.3324 15.9745L28.6755 29.3568ZM58.8822 38.4501C57.6531 37.1963 55.7365 37.2783 54.4449 38.4501L44.8204 47.1099C43.6434 48.1763 42.1748 48.7505 40.654 48.7505H28.3318C27.4152 48.7505 26.6652 47.9068 26.6652 46.8756C26.6652 45.8443 27.4152 45.0006 28.3318 45.0006H36.4876C38.1437 45.0006 39.6853 43.7233 39.9561 41.8836C40.2999 39.5399 38.6958 37.5009 36.6646 37.5009H19.9989C17.1866 37.5009 14.468 38.5907 12.2806 40.5828L7.43709 45.0006H1.66657C0.749959 45.0006 0 45.8443 0 46.8756V58.1251C0 59.1563 0.749959 60 1.66657 60H38.8312C40.3415 60 41.8102 59.4258 42.9976 58.3594L58.7468 44.1804C60.33 42.7624 60.455 40.0438 58.8822 38.4501Z" fill="#FCECEF"/>
</svg>
